<svg width="19" height="22" viewBox="0 0 19 22" fill="none" xmlns="http://www.w3.org/2000/svg">
<g id="Union">
<path fill-rule="evenodd" clip-rule="evenodd" d="M3.8125 2C3.8125 1.17157 4.48407 0.5 5.3125 0.5H17.3125C18.1409 0.5 18.8125 1.17157 18.8125 2V17C18.8125 17.8284 18.1409 18.5 17.3125 18.5H5.3125C4.48407 18.5 3.8125 17.8284 3.8125 17V2ZM5.3125 2H17.3125V17H5.3125V2Z" fill="black"/>
<path d="M0.8125 4.25V20C0.8125 20.8284 1.48407 21.5 2.3125 21.5H15.0625C15.8909 21.5 16.5625 20.8284 16.5625 20H2.3125V2.75C1.48407 2.75 0.8125 3.42157 0.8125 4.25Z" fill="black"/>
</g>
</svg>
