<svg width="28" height="28" viewBox="0 0 28 28" fill="none" xmlns="http://www.w3.org/2000/svg">
<rect width="28" height="28" rx="4" fill="#002D58"/>
<path d="M5.44936 18.4078C5.85555 19.0462 6.51175 19.5239 7.31241 19.6832L10.1292 20.2435L8.08549 20.7912C6.95692 21.0936 5.79689 20.4239 5.49449 19.2953C5.41433 18.9962 5.40248 18.6948 5.44936 18.4078Z" fill="#66AAEA"/>
<path d="M5.58631 15.1273C5.66152 16.1858 6.17226 17.2085 7.08036 17.9053C7.10377 17.9232 7.12731 17.9409 7.15099 17.9582L10.1294 20.2435L7.31236 19.6836C5.7566 19.3741 4.74628 17.8621 5.05574 16.3063C5.14391 15.8631 5.3297 15.4641 5.58631 15.1273Z" fill="#80B8EE"/>
<path d="M7.88915 15.7018C7.90194 15.7277 7.91491 15.7535 7.92808 15.7791L10.1295 20.2431L10.1308 20.2424L10.1296 20.244L7.15081 17.9584C7.12713 17.941 7.10359 17.9234 7.08018 17.9054C5.3963 16.6134 5.07869 14.2009 6.37078 12.517C6.76741 12.0001 7.26963 11.612 7.82394 11.3596C7.21535 12.6951 7.18941 14.2829 7.88915 15.7018Z" fill="#B3D4F5"/>
<path d="M10.1291 13.622C10.1291 13.6528 10.1293 13.6836 10.1297 13.7143L10.1297 20.2424L7.92848 15.7788C7.91531 15.7532 7.90234 15.7274 7.88955 15.7015C6.65263 13.1933 7.68323 10.1573 10.1915 8.92043C10.9905 8.5264 11.8431 8.36248 12.674 8.40313C11.1248 9.61537 10.1291 11.5024 10.1291 13.622Z" fill="#E6F1FC"/>
<path d="M10.1295 13.7153C10.1291 13.6845 10.1289 13.6538 10.1289 13.6229C10.1289 9.96519 13.0941 7 16.7519 7C20.4098 7 23.375 9.96519 23.375 13.6229C23.375 17.2805 20.4101 20.2455 16.7526 20.2459V20.2469L10.1295 20.2469L10.1295 13.7153Z" fill="white"/>
<path fill-rule="evenodd" clip-rule="evenodd" d="M11.5489 13.7056L11.5489 18.8276L16.7524 18.8266C19.6261 18.8263 21.9557 16.4967 21.9557 13.6229C21.9557 10.749 19.6259 8.4193 16.7519 8.4193C13.878 8.4193 11.5482 10.749 11.5482 13.6229C11.5482 13.6473 11.5484 13.6716 11.5487 13.6959L11.5489 13.7056ZM16.7526 20.2459C20.4101 20.2455 23.375 17.2805 23.375 13.6229C23.375 9.96519 20.4098 7 16.7519 7C13.0941 7 10.1289 9.96519 10.1289 13.6229C10.1289 13.6538 10.1291 13.6845 10.1295 13.7153L10.1295 20.2469L16.7526 20.2469V20.2459Z" fill="#80B8EE"/>
</svg>
