<svg width="18" height="16" viewBox="0 0 18 16" fill="none" xmlns="http://www.w3.org/2000/svg">
<path fill-rule="evenodd" clip-rule="evenodd" d="M4.5 6.5H3C2.17157 6.5 1.5 7.17157 1.5 8C1.5 8.82843 2.17157 9.5 3 9.5H4.5V14H7.5C7.5 12.3431 8.84315 11 10.5 11C12.1569 11 13.5 12.3431 13.5 14H16.5V11C14.8431 11 13.5 9.65685 13.5 8C13.5 6.34315 14.8431 5 16.5 5V2L4.5 2V6.5ZM18 2C18 1.17157 17.3284 0.5 16.5 0.5H4.5C3.67157 0.5 3 1.17157 3 2V5C1.34315 5 0 6.34315 0 8C0 9.65685 1.34315 11 3 11V14C3 14.8284 3.67157 15.5 4.5 15.5H9V14C9 13.1716 9.67157 12.5 10.5 12.5C11.3284 12.5 12 13.1716 12 14V15.5H16.5C17.3284 15.5 18 14.8284 18 14V9.5H16.5C15.6716 9.5 15 8.82843 15 8C15 7.17157 15.6716 6.5 16.5 6.5H18V2Z" fill="black"/>
</svg>
